<svg width="92" height="20" viewBox="0 0 92 20" fill="none" xmlns="http://www.w3.org/2000/svg">
<path d="M33.8704 1.26636H37.3281L43.2074 12.0648L49.0866 1.26637H52.4695V19.0102H49.6484V5.41089L44.4931 14.8278H41.8467L36.6914 5.41089V19.0102H33.8704V1.26636Z" fill="#1C2B33"/>
<path d="M61.5691 19.3271C60.2625 19.3271 59.1141 19.0335 58.1239 18.4462C57.1335 17.859 56.3617 17.0457 55.8084 16.0065C55.2549 14.9671 54.9782 13.7758 54.9783 12.4323C54.9783 11.072 55.2487 9.86798 55.7896 8.82017C56.3305 7.77259 57.0816 6.95296 58.0428 6.3613C59.004 5.77001 60.1087 5.47428 61.3569 5.47412C62.5968 5.47412 63.664 5.77195 64.5587 6.36761C65.4531 6.96343 66.1417 7.79784 66.6245 8.87084C67.1071 9.944 67.3484 11.203 67.3485 12.6478V13.4335H57.7744C57.9492 14.5152 58.3798 15.3665 59.0664 15.9873C59.7529 16.6084 60.6204 16.9189 61.6689 16.9189C62.5094 16.9189 63.2334 16.7921 63.8409 16.5387C64.4483 16.2852 65.0184 15.9008 65.5511 15.3854L67.049 17.2484C65.5592 18.6343 63.7326 19.3272 61.5691 19.3271ZM63.6288 8.80107C63.0378 8.18858 62.2639 7.88228 61.307 7.88217C60.3749 7.88217 59.5947 8.19484 58.9665 8.82017C58.3381 9.44545 57.9407 10.2862 57.7744 11.3423H64.6399C64.5566 10.2608 64.2195 9.41368 63.6288 8.80107Z" fill="#1C2B33"/>
<path d="M70.769 8.13587H68.1726V5.79111H70.769V1.91284H73.4902V5.79111H77.4347V8.13587H73.4902V14.08C73.4902 15.0685 73.6567 15.774 73.9895 16.1965C74.3222 16.6192 74.8923 16.8304 75.6997 16.8302C76.0573 16.8302 76.3611 16.8155 76.6109 16.7859C76.8606 16.7564 77.1352 16.7163 77.4347 16.6655V18.9848C77.0929 19.0852 76.7446 19.1615 76.3924 19.213C75.9895 19.2733 75.5827 19.3029 75.1754 19.3017C72.2377 19.3017 70.7689 17.671 70.769 14.4096V8.13587Z" fill="#1C2B33"/>
<path d="M91.6154 19.0102H88.9441V17.1597C88.4697 17.8527 87.8664 18.3871 87.1341 18.763C86.4018 19.1388 85.5696 19.3269 84.6376 19.3271C83.4892 19.3271 82.4719 19.0292 81.5856 18.4334C80.6993 17.8378 80.0023 17.0182 79.4947 15.9747C78.9871 14.9312 78.7333 13.7377 78.7333 12.3943C78.7333 11.0424 78.9913 9.84677 79.5073 8.80739C80.0231 7.76822 80.7367 6.95286 81.648 6.3613C82.5592 5.77001 83.6057 5.47428 84.7873 5.47412C85.6778 5.47412 86.4766 5.64948 87.184 6.00018C87.8818 6.34291 88.4862 6.85424 88.9441 7.48933V5.79105H91.6154V19.0102ZM88.8942 10.4171C88.6028 9.6651 88.143 9.07149 87.5148 8.63629C86.8864 8.20119 86.1603 7.98365 85.3366 7.98365C84.1714 7.98365 83.2436 8.38076 82.553 9.17497C81.8622 9.96924 81.5168 11.0423 81.517 12.3943C81.517 13.7548 81.8498 14.8321 82.5155 15.6262C83.1812 16.4205 84.0841 16.8176 85.2243 16.8176C86.0647 16.8176 86.8136 16.5978 87.4711 16.1584C88.1284 15.7193 88.6028 15.1278 88.8942 14.3841L88.8942 10.4171Z" fill="#1C2B33"/>
<path d="M8.33413 0.666748C8.32524 0.666748 8.31639 0.66678 8.3075 0.666827L8.27112 3.71794C8.27944 3.71785 8.28776 3.71777 8.29609 3.71777H8.29611C10.274 3.71777 11.8082 5.30122 15.1428 11.0042L15.3461 11.3514L15.3594 11.3741L17.226 8.53037L17.2131 8.50841C16.7738 7.78298 16.3518 7.11552 15.947 6.50605C15.4776 5.79989 15.0287 5.16904 14.5931 4.60581C12.3871 1.75401 10.5418 0.666748 8.33413 0.666748Z" fill="url(#paint0_linear_2000_682)"/>
<path d="M8.30751 0.666827C6.08909 0.678415 4.12785 2.13495 2.71166 4.36374C2.70751 4.37027 2.70336 4.3768 2.69922 4.38335L5.2988 5.81997C5.30301 5.81348 5.30725 5.80698 5.31149 5.80051C6.13846 4.53629 7.1676 3.72994 8.27114 3.71794C8.27947 3.71785 8.28778 3.71778 8.29611 3.71778L8.33415 0.666748C8.32525 0.666748 8.3164 0.66678 8.30751 0.666827Z" fill="url(#paint1_linear_2000_682)"/>
<path d="M2.71171 4.36377C2.70757 4.37029 2.70342 4.37683 2.69928 4.38338C1.76869 5.85423 1.07496 7.65915 0.700046 9.60631C0.698422 9.61474 0.696803 9.62317 0.69519 9.63162L3.61571 10.3313C3.61723 10.3228 3.61877 10.3144 3.6203 10.3059C3.93247 8.59469 4.5268 7.00758 5.29884 5.82C5.30306 5.81351 5.3073 5.807 5.31154 5.80054L2.71171 4.36377Z" fill="url(#paint2_linear_2000_682)"/>
<path d="M3.62029 10.3058L0.70002 9.6062C0.698396 9.61463 0.696778 9.62306 0.695165 9.63151C0.490731 10.7024 0.386725 11.7905 0.384543 12.8813C0.384525 12.8901 0.384519 12.8989 0.384522 12.9077L3.37963 13.1798C3.37939 13.1709 3.37914 13.1622 3.37894 13.1533C3.37747 13.09 3.37672 13.0259 3.3767 12.9609C3.37819 12.0788 3.45817 11.1987 3.61568 10.3312C3.61721 10.3227 3.61874 10.3143 3.62029 10.3058Z" fill="url(#paint3_linear_2000_682)"/>
<path d="M3.47072 14.1287C3.417 13.8152 3.38655 13.498 3.37963 13.1799C3.37939 13.171 3.37914 13.1623 3.37894 13.1534L0.384543 12.8813C0.384525 12.8902 0.384519 12.899 0.384522 12.9078V12.9095C0.384522 13.5884 0.44028 14.224 0.548644 14.8112C0.55021 14.8197 0.551751 14.828 0.553341 14.8365L3.47526 14.1541C3.47371 14.1456 3.47222 14.1371 3.47072 14.1287Z" fill="url(#paint4_linear_2000_682)"/>
<path d="M4.15304 15.7026C3.82712 15.3414 3.59647 14.8204 3.4752 14.1541C3.47366 14.1456 3.47217 14.1371 3.47067 14.1287L0.548584 14.8112C0.55015 14.8197 0.551691 14.828 0.553281 14.8365C0.774144 16.0139 1.20729 16.9952 1.8276 17.7375C1.83312 17.7441 1.83865 17.7507 1.8442 17.7573L4.17045 15.7217C4.16463 15.7154 4.1588 15.709 4.15304 15.7026Z" fill="url(#paint5_linear_2000_682)"/>
<path d="M12.81 7.2627C11.0491 10.005 9.98244 11.725 9.98244 11.725C7.63682 15.4584 6.82536 16.2951 5.51943 16.2951C4.9745 16.2951 4.51925 16.0981 4.17048 15.7215C4.16467 15.7152 4.15884 15.7089 4.15308 15.7025L1.82764 17.7374C1.83315 17.744 1.83869 17.7506 1.84424 17.7571C2.70074 18.7708 3.90971 19.3333 5.40532 19.3333C7.66809 19.3333 9.29549 18.2501 12.1886 13.1154C12.1886 13.1154 13.3946 10.953 14.2243 9.46343C13.7103 8.62094 13.2426 7.89157 12.81 7.2627Z" fill="#0082FB"/>
<path d="M15.9486 2.93433C15.9427 2.94072 15.9366 2.94726 15.9307 2.95368C15.4683 3.4539 15.0245 4.01253 14.5928 4.60522C15.0284 5.16845 15.4782 5.80052 15.9476 6.50669C16.5008 5.63967 17.0173 4.93747 17.5234 4.39926C17.5294 4.39288 17.5353 4.38668 17.5413 4.38034L15.9486 2.93433Z" fill="url(#paint6_linear_2000_682)"/>
<path d="M24.4973 2.66552C23.2693 1.40586 21.8051 0.666748 20.2398 0.666748C18.5892 0.666748 17.2008 1.58513 15.9486 2.93434C15.9426 2.94074 15.9366 2.94727 15.9307 2.95369L17.5234 4.39927C17.5294 4.39289 17.5353 4.38669 17.5413 4.38036C18.3662 3.5091 19.1646 3.0741 20.0496 3.0741H20.0496C21.0021 3.0741 21.8939 3.52939 22.6662 4.32758C22.6723 4.33384 22.6783 4.34004 22.6843 4.34634L24.5156 2.68428C24.5095 2.67799 24.5034 2.67178 24.4973 2.66552Z" fill="#0082FB"/>
<path d="M28.0474 12.4798C27.9786 8.43529 26.5847 4.81954 24.5156 2.68428C24.5095 2.678 24.5034 2.67179 24.4973 2.66553L22.6663 4.32758C22.6723 4.33384 22.6783 4.34004 22.6844 4.34634C24.2409 5.96976 25.3085 8.98936 25.4056 12.4789C25.4059 12.4877 25.4061 12.4965 25.4064 12.5053L28.0479 12.5061C28.0477 12.4974 28.0476 12.4886 28.0474 12.4798Z" fill="url(#paint7_linear_2000_682)"/>
<path d="M28.0478 12.5062C28.0476 12.4974 28.0475 12.4887 28.0474 12.4799L25.4056 12.479C25.4058 12.4878 25.406 12.4966 25.4063 12.5054C25.4106 12.6691 25.4128 12.8339 25.4127 12.9997C25.4127 13.9511 25.2728 14.7202 24.9882 15.2755C24.9839 15.2837 24.9796 15.292 24.9753 15.3001L26.945 17.38C26.9499 17.3725 26.9547 17.365 26.9595 17.3574C27.6746 16.2371 28.05 14.6809 28.05 12.7937C28.05 12.6976 28.0492 12.6018 28.0478 12.5062Z" fill="url(#paint8_linear_2000_682)"/>
<path d="M24.9882 15.2754C24.984 15.2836 24.9797 15.2919 24.9754 15.3C24.729 15.7681 24.3775 16.0802 23.9178 16.2168L24.8158 19.09C24.9347 19.049 25.0504 19.0029 25.163 18.9519C25.1967 18.9367 25.2301 18.921 25.2631 18.9049C25.2822 18.8956 25.3012 18.8862 25.3201 18.8767C25.9138 18.5762 26.4155 18.1331 26.8214 17.5621C26.8461 17.5273 26.8707 17.4921 26.8947 17.4563C26.9117 17.4311 26.9284 17.4056 26.945 17.38C26.9499 17.3724 26.9547 17.3649 26.9596 17.3573L24.9882 15.2754Z" fill="url(#paint9_linear_2000_682)"/>
<path d="M23.3462 16.2953C23.0451 16.2953 22.7794 16.2498 22.5195 16.1318L21.6001 19.0734C22.1168 19.2527 22.6681 19.3335 23.2828 19.3335C23.8492 19.3335 24.3691 19.2473 24.8404 19.0815L23.9427 16.2093C23.7492 16.2681 23.5481 16.2971 23.3462 16.2953V16.2953Z" fill="url(#paint10_linear_2000_682)"/>
<path d="M21.5064 15.2891C21.5007 15.2825 21.4951 15.2758 21.4894 15.269L19.3739 17.503C19.3798 17.5094 19.3857 17.5158 19.3916 17.5222C20.1267 18.3175 20.8286 18.8109 21.6247 19.0817L22.5433 16.1423C22.2078 15.996 21.8834 15.7308 21.5064 15.2891Z" fill="url(#paint11_linear_2000_682)"/>
<path d="M21.4894 15.269C20.8548 14.5198 20.0699 13.2723 18.8351 11.2551L17.226 8.53026L17.2131 8.5083L15.3461 11.3513L15.3594 11.374L16.4995 13.3214C17.6047 15.1992 18.505 16.5576 19.3739 17.5029C19.3798 17.5093 19.3857 17.5158 19.3916 17.5221L21.5064 15.289C21.5007 15.2824 21.4951 15.2757 21.4894 15.269Z" fill="url(#paint12_linear_2000_682)"/>
<defs>
<linearGradient id="paint0_linear_2000_682" x1="15.9853" y1="10.2176" x2="9.66817" y2="2.06515" gradientUnits="userSpaceOnUse">
<stop offset="0.0006" stop-color="#0867DF"/>
<stop offset="0.4539" stop-color="#0668E1"/>
<stop offset="0.8591" stop-color="#0064E0"/>
</linearGradient>
<linearGradient id="paint1_linear_2000_682" x1="3.92029" y1="4.87642" x2="8.21607" y2="1.66439" gradientUnits="userSpaceOnUse">
<stop offset="0.1323" stop-color="#0064DF"/>
<stop offset="0.9988" stop-color="#0064E0"/>
</linearGradient>
<linearGradient id="paint2_linear_2000_682" x1="2.11952" y1="9.68246" x2="3.86914" y2="5.34468" gradientUnits="userSpaceOnUse">
<stop offset="0.0147" stop-color="#0072EC"/>
<stop offset="0.6881" stop-color="#0064DF"/>
</linearGradient>
<linearGradient id="paint3_linear_2000_682" x1="1.88804" y1="12.8292" x2="2.0913" y2="10.1693" gradientUnits="userSpaceOnUse">
<stop offset="0.0731" stop-color="#007CF6"/>
<stop offset="0.9943" stop-color="#0072EC"/>
</linearGradient>
<linearGradient id="paint4_linear_2000_682" x1="1.99649" y1="14.2744" x2="1.85115" y2="13.2091" gradientUnits="userSpaceOnUse">
<stop offset="0.0731" stop-color="#007FF9"/>
<stop offset="1" stop-color="#007CF6"/>
</linearGradient>
<linearGradient id="paint5_linear_2000_682" x1="1.91363" y1="14.5544" x2="2.81483" y2="16.4369" gradientUnits="userSpaceOnUse">
<stop offset="0.0731" stop-color="#007FF9"/>
<stop offset="1" stop-color="#0082FB"/>
</linearGradient>
<linearGradient id="paint6_linear_2000_682" x1="15.4251" y1="5.39422" x2="16.6106" y2="3.77934" gradientUnits="userSpaceOnUse">
<stop offset="0.2799" stop-color="#007FF8"/>
<stop offset="0.9141" stop-color="#0082FB"/>
</linearGradient>
<linearGradient id="paint7_linear_2000_682" x1="24.2612" y1="3.27907" x2="26.7624" y2="12.3407" gradientUnits="userSpaceOnUse">
<stop stop-color="#0082FB"/>
<stop offset="0.9995" stop-color="#0081FA"/>
</linearGradient>
<linearGradient id="paint8_linear_2000_682" x1="27.2794" y1="12.7074" x2="25.7028" y2="15.8454" gradientUnits="userSpaceOnUse">
<stop offset="0.0619" stop-color="#0081FA"/>
<stop offset="1" stop-color="#0080F9"/>
</linearGradient>
<linearGradient id="paint9_linear_2000_682" x1="24.5179" y1="17.5382" x2="25.97" y2="16.5641" gradientUnits="userSpaceOnUse">
<stop stop-color="#027AF3"/>
<stop offset="1" stop-color="#0080F9"/>
</linearGradient>
<linearGradient id="paint10_linear_2000_682" x1="22.2621" y1="17.7326" x2="24.2608" y2="17.7326" gradientUnits="userSpaceOnUse">
<stop stop-color="#0377EF"/>
<stop offset="0.9994" stop-color="#0279F1"/>
</linearGradient>
<linearGradient id="paint11_linear_2000_682" x1="20.5244" y1="16.6149" x2="21.9725" y2="17.4539" gradientUnits="userSpaceOnUse">
<stop offset="0.0019" stop-color="#0471E9"/>
<stop offset="1" stop-color="#0377EF"/>
</linearGradient>
<linearGradient id="paint12_linear_2000_682" x1="16.1412" y1="10.2857" x2="20.8303" y2="16.0922" gradientUnits="userSpaceOnUse">
<stop offset="0.2765" stop-color="#0867DF"/>
<stop offset="1" stop-color="#0471E9"/>
</linearGradient>
</defs>
</svg>
